<?xml version="1.0" encoding="UTF-8"?>
<svg id="Layer_1" xmlns="http://www.w3.org/2000/svg" version="1.1" viewBox="0 0 316.5 69.9">
  <!-- Generator: Adobe Illustrator 30.2.1, SVG Export Plug-In . SVG Version: 2.1.1 Build 1)  -->
  <defs>
    <style>
      .st0 {
        fill: #fff;
      }

      .st1 {
        fill: #c49f58;
      }
    </style>
  </defs>
  <g>
    <path class="st1" d="M149.1,64.3l-17.2-.7-11.6-12.2-8-8.3-6.2-6.4-6.5,4.3-10.1-8.6,17.3-.9,5.2,5.6,16.9,18.4,4.6,5.3,12.5,2.7c1,.2,2,.3,3,.8Z"/>
    <path class="st1" d="M118.5,52.3l-12.9-12.2-4.2,2.6c-.3-.3-.7-.6-.9-.9l5.3-3.6,20.8,21.8c-3-2.3-5.4-5-8.1-7.6Z"/>
    <g>
      <path class="st1" d="M101.6.6l.8.3c-.5.5-.8.9-1.3,1.4l-6.4,6.3,1.8,5.9,5.7,1.9,7-6.9c.3-.3.6-.4,1-.6.7,3.8-.8,8.4-3.1,11.3-2.2,2.8-5.4,4.3-9,4.2s-5,1.7-7.1,3.8l-3,3.1-1.8-1.5,3.3-3.5c.5-.5.6-1.3.5-2-.2-1.1-.9-1.8-1.8-2.1s-1.9,0-2.7.8l-3.4,3.3-2-1.7,4-4c2-2,2.8-4.5,2.7-7.3-.2-7.4,5.1-11.6,11.7-12.7h3Z"/>
      <path class="st1" d="M61.8,25.4c-.3,0-.7.2-1,.5l6,6c-.3.4-.7.6-1.1.9l-7.2-7.3,6.2-6.1,7.7,7.8-4.9,4.2-5.8-5.9Z"/>
      <path class="st1" d="M85.8,29.4l-3.2-2.7c1.1-1.2,2.2-2.5,3.6-3.5s1.7-.2,2.2.2,1.2,1.5.6,2.3c-.9,1.4-2,2.4-3.3,3.7Z"/>
      <g>
        <path class="st1" d="M51.1,26.2c-1.3,1.1-1.9,2.7-1.7,4.3l-3.6,3.5c-.4.4-1.1.5-1.6,0l-6.1-6c-.2-.2-.5-1.1-.3-1.4l3.8-4c1.6.4,3.2,0,4.3-1.3s1.5-2.8,1.4-4.5l7.5-7.4c6.8-6.7,18.4-5.9,26.5-2,0,.4-.4,1-.6,1l-4.1-.3c-3.8-.3-9.6.3-12.4,3.2s-1.6,3.7-.5,5.4l1,1.4-7.1,7.1c-.7.7-3.4-1.8-6.5,1Z"/>
        <path class="st1" d="M47.8,15.2c-.6-.7-.5-1.5,0-2.1l4.3-4.3c.5-.5,1.5-.4,1.9.3l-6.2,6.1Z"/>
      </g>
    </g>
    <path class="st1" d="M155.9,69.3h-34.5l-23.4-19.3-9.9-8-10.4-8.4-10,8.3-12.2,10-21.1,17.2c0,0-.2.3-.2.3H0l.2-.2,30.8-5.1,10-8.5v-14.4s9.5,0,9.5,0v6.3c0,0,10.5-8.6,10.5-8.6l13.7-11.6,3.1-2.7,18.5,15.6,18,15.2,10,8.5,4.1.8,17.1,2.8,9.7,1.5c.3,0,.6.2.8.3Z"/>
    <path class="st1" d="M97.9,54.2l-20.1-14.9-17,12.7c-7,5.2-13.9,10.5-21.2,15.3l20.7-17.1,17.4-14.4,6.7,5.5,27.7,22.7c1.3,1.1,2.7,1.9,3.7,3.3l-17.9-13.2Z"/>
    <g>
      <rect class="st1" x="78.5" y="60.1" width="6" height="6.2"/>
      <rect class="st1" x="71.1" y="60.1" width="6" height="6.2" transform="translate(-.3 .4) rotate(-.3)"/>
      <rect class="st1" x="71.1" y="52.6" width="6" height="6.1" transform="translate(-.2 .3) rotate(-.3)"/>
      <rect class="st1" x="78.5" y="52.6" width="6" height="6.1" transform="translate(-.2 .2) rotate(-.2)"/>
    </g>
  </g>
  <g>
    <path class="st0" d="M160.4,28c-.2.5-.2.9-.1,1.2.1.3.3.6.6.8s.6.3.9.3h.3v.4h-7.7v-.4h.3c.6,0,1.1-.2,1.7-.5.6-.3,1.1-.9,1.5-1.7h2.5ZM168.1,4.7v4.4c.1,0-8.8,21.4-8.8,21.4h-2.6l9.3-21.1c0-.1.2-.4.4-.8.2-.4.4-.8.6-1.4.2-.5.4-1,.6-1.5.2-.5.3-.8.3-1.1h.3ZM171.9,22v1.5h-10.6v-1.5h10.6ZM168.1,4.7l11.8,25.7h-6.5l-7.5-18.8,2.2-6.9ZM172.4,28h6.3c.4.8.9,1.4,1.5,1.7s1.1.5,1.7.5h.3v.4h-11.4v-.4h.3c.5,0,.9-.2,1.3-.6.4-.4.4-1,.1-1.7Z"/>
    <path class="st0" d="M185.1,11.2h0c0-.6-.2-1-.6-1.3s-.8-.5-1.3-.5h-.5v-.4h2.6v2.2ZM185.1,28.3v2.3c.1,0-2.4,0-2.4,0v-.4h.4c.5,0,1-.2,1.3-.6s.6-.8.6-1.3h0ZM190.2,9v21.6h-5.2V9h5.2ZM193.7,9c1,0,1.9.1,2.9.3.9.2,1.8.5,2.5,1,.7.4,1.3,1,1.8,1.8.4.8.7,1.7.7,2.8s-.2,1.7-.5,2.5-.9,1.5-1.6,2.1c-.7.6-1.7,1-2.9,1.2.7.2,1.4.6,2,1.3.6.6,1.1,1.2,1.5,1.8,0,.2.3.5.5.9.2.4.5.9.9,1.4.4.5.8,1.1,1.2,1.7.5.6.9,1.1,1.3,1.5.4.3.7.6,1.1.7.4.1.8.2,1.3.2v.4h-3c-1.3,0-2.4,0-3.3-.3-.9-.2-1.7-.5-2.3-1.1-.7-.5-1.3-1.2-1.8-2.1-.2-.3-.4-.7-.7-1.1-.2-.4-.5-.9-.7-1.4-.2-.5-.5-.9-.6-1.3-.2-.4-.3-.8-.4-1.1-.3-.8-.7-1.3-1.1-1.7-.4-.3-.8-.5-1.1-.5v-.3h.9c.5,0,1,0,1.5-.3.5-.2.9-.5,1.4-1,.4-.5.7-1.3.9-2.3,0-.1,0-.3.1-.6,0-.3,0-.6,0-.9,0-.9-.2-1.6-.5-2.1-.3-.5-.6-.9-1-1.2-.4-.3-.8-.5-1.2-.6-.4-.1-.8-.2-1.1-.2-.5,0-.9,0-1.2,0-.4,0-.7,0-.8,0,0,0,0-.1-.1-.4s-.1-.6-.2-1.1h3.9ZM190.1,28.3h0c0,.6.2,1.1.6,1.4.4.3.9.5,1.3.5h.4v.4h-2.6l.2-2.3Z"/>
    <path class="st0" d="M208.6,11.3h0c0-.6-.2-1-.6-1.4-.4-.4-.8-.5-1.3-.5h-.5v-.4h2.7l-.2,2.3ZM208.6,28.3l.2,2.3h-2.7v-.4h.5c.5,0,1-.2,1.3-.6s.6-.8.6-1.3h0ZM213.7,9v21.6h-5.2V9h5.2ZM222.5,9v1.4h-8.9v-1.4h8.9ZM220.9,19.2v1.4h-7.3v-1.4h7.3ZM222.1,29.2l.8,1.4h-9.3v-1.4h8.5ZM224.4,24l-1.4,6.6h-6.2l1.1-1.4c1,0,1.9-.2,2.8-.6.8-.4,1.5-1,2.1-1.8.6-.8,1-1.7,1.3-2.8h.3ZM220.9,16.1v3.2h-3.1c.8,0,1.5-.4,2-.9s.7-1.2.7-2v-.3h.4ZM220.9,20.6v3.2h-.4v-.3c0-.8-.2-1.5-.7-2-.5-.5-1.2-.8-2-.8h0c0,0,3.1,0,3.1,0ZM222.5,8.5v.9l-3.8-.3c.7,0,1.4,0,2.2-.2.8-.1,1.3-.2,1.6-.3ZM222.5,10.4v3.8h-.4v-.3c0-1.1-.3-1.9-.8-2.5-.6-.6-1.4-.9-2.4-.9h0c0,0,3.6,0,3.6,0Z"/>
    <path class="st0" d="M225.6,8.4c.2,0,.5.2,1,.2.4,0,.9.2,1.4.2.5,0,1,0,1.4,0l-3.8.4v-.9ZM246.5,9v1.4h-20.9v-1.4h20.9ZM229.3,10.3h0c-1.1.1-1.9.4-2.4,1-.6.6-.8,1.4-.8,2.4v.3h-.4v-3.8h3.7ZM233.5,28.3v2.3h-2.4v-.4h.4c.6,0,1-.2,1.4-.6s.6-.8.6-1.3h0ZM238.7,9.1v21.5h-5.2V9.1h5.2ZM238.5,28.3h.1c0,.5.2,1,.6,1.3.4.4.9.6,1.4.6h.4v.4h-2.5v-2.3ZM246.5,8.4v.9l-3.8-.4c.5,0,.9,0,1.5,0,.5,0,1-.1,1.4-.2.4,0,.7-.2.9-.2ZM246.5,10.3v3.8h-.4v-.3c0-1-.3-1.8-.8-2.4-.6-.6-1.4-.9-2.4-.9h0c0-.1,3.7-.1,3.7-.1Z"/>
    <path class="st0" d="M250.9,11.3h0c0-.6-.2-1-.6-1.4-.4-.4-.8-.5-1.3-.5h-.5v-.4h2.7l-.2,2.3ZM250.9,28.3l.2,2.3h-2.7v-.4h.5c.5,0,1-.2,1.3-.6s.6-.8.6-1.3h0ZM256,9v21.6h-5.2V9h5.2ZM264.8,9v1.4h-8.9v-1.4h8.9ZM263.2,19.2v1.4h-7.3v-1.4h7.3ZM264.4,29.2l.8,1.4h-9.3v-1.4h8.5ZM266.7,24l-1.4,6.6h-6.2l1.1-1.4c1,0,1.9-.2,2.8-.6.8-.4,1.5-1,2.1-1.8.6-.8,1-1.7,1.3-2.8h.3ZM263.2,16.1v3.2h-3.1c.8,0,1.5-.4,2-.9s.7-1.2.7-2v-.3h.4ZM263.2,20.6v3.2h-.4v-.3c0-.8-.2-1.5-.7-2-.5-.5-1.2-.8-2-.8h0c0,0,3.1,0,3.1,0ZM264.8,8.5v.9l-3.8-.3c.7,0,1.4,0,2.2-.2.8-.1,1.3-.2,1.6-.3ZM264.8,10.4v3.8h-.4v-.3c0-1.1-.3-1.9-.8-2.5-.6-.6-1.4-.9-2.4-.9h0c0,0,3.6,0,3.6,0Z"/>
    <path class="st0" d="M158.5,44.9h0c0-.4-.2-.8-.5-1.1s-.7-.5-1.1-.5h-.3v-.2h2v1.8ZM158.5,58.8v1.8h-2v-.2h.3c.4,0,.8-.2,1.1-.5.3-.3.5-.7.5-1.1h0ZM162.2,43.1v17.5h-3.8v-17.5h3.8ZM165.1,43.1c.8,0,1.5,0,2.2.2.7.2,1.4.4,1.9.8.6.4,1,.9,1.3,1.5.3.6.5,1.3.5,2.2s-.1,1.4-.4,2.1c-.3.7-.7,1.3-1.3,1.8-.6.5-1.4.8-2.3.9.5.2,1,.5,1.5.9.4.4.8.9,1.1,1.3,0,0,.1.2.3.5s.4.6.6,1c.3.4.5.8.8,1.2.3.4.5.8.8,1,.4.5.7.8,1,1.1s.6.5,1,.6c.3.1.7.2,1.1.2v.2h-2.4c-.9,0-1.7,0-2.5-.2s-1.4-.4-2-.8-1.1-.9-1.5-1.5c-.1-.2-.3-.5-.4-.8-.2-.3-.3-.6-.5-1-.2-.4-.3-.7-.5-1s-.3-.6-.4-.9c-.1-.3-.2-.5-.2-.6-.2-.5-.5-.9-.8-1.2-.3-.3-.6-.4-.9-.5v-.2h.8c.4,0,.9,0,1.3-.3.4-.2.8-.5,1.1-.9.3-.4.6-1,.7-1.7,0-.1,0-.3,0-.5,0-.2,0-.4,0-.7,0-1.2-.4-2.1-.9-2.6s-1.2-.8-2-.9c-.2,0-.5,0-.8,0-.3,0-.5,0-.8,0h-.5s0-.1,0-.3c0-.2-.1-.4-.2-.8h3.2ZM162.1,58.8h0c0,.4.2.8.5,1.1.3.3.7.5,1.1.5h.3v.2h-2v-1.8Z"/>
    <path class="st0" d="M176.3,47.2h0c0-.4-.2-.7-.4-1s-.6-.4-.9-.4h-.3v-.2h1.9v1.6ZM176.3,59v1.6c.1,0-1.7,0-1.7,0v-.2h.3c.4,0,.7-.1.9-.4.3-.3.4-.6.4-.9h0ZM179.9,45.6v15h-3.6v-15h3.6ZM186,45.6v1h-6.2v-1h6.2ZM184.9,52.7v1h-5v-1h5ZM185.7,59.6l.6,1h-6.5v-1h5.9ZM187.3,56l-1,4.6h-4.3l.8-1c.7,0,1.4-.1,1.9-.4.6-.3,1-.7,1.4-1.2.4-.5.7-1.2.9-1.9h.2ZM184.9,50.5v2.2h-2.2c.6,0,1-.3,1.4-.6s.5-.8.5-1.4v-.2h.2ZM184.9,53.6v2.2h-.2v-.2c0-.6-.2-1-.5-1.4-.3-.4-.8-.6-1.4-.6h0s2.2,0,2.2,0ZM186,45.2v.6l-2.6-.2c.5,0,1,0,1.5-.1.5,0,.9-.2,1.1-.2ZM186,46.5v2.6h-.2v-.2c0-.7-.2-1.3-.6-1.7-.4-.4-1-.6-1.7-.7h0s2.5,0,2.5,0Z"/>
    <path class="st0" d="M190.2,59.1v1.5h-1.8v-.2h.4c.4,0,.7-.1,1-.4.3-.2.4-.5.4-.9h0ZM190.1,45.2l3.4,3.8v11.6h-3.4v-12.5c0-.8,0-1.8-.2-2.8h.2ZM190.1,45.2l14.7,12.9.2,2.8-14.7-12.9-.3-2.8ZM193.6,59.1c0,.4.2.7.4.9.3.2.6.4.9.4h.4v.2h-1.9v-1.5h0ZM201.6,47.1c0-.4-.2-.7-.4-.9-.3-.2-.6-.4-1-.4h-.4v-.2h1.8v1.5h0ZM205,45.6v12.4c0,.6,0,1.1,0,1.5s.1.9.2,1.4h-.2l-3.5-4v-11.3h3.4ZM204.9,47.1v-1.5h1.9v.2h-.4c-.4,0-.7.1-1,.4-.3.2-.4.5-.4.9h0Z"/>
    <path class="st0" d="M216.8,45.3c1.3,0,2.5.2,3.6.5,1.1.4,2,.9,2.8,1.6s1.4,1.5,1.8,2.5.6,2.1.6,3.3-.2,2.3-.6,3.2-1,1.8-1.8,2.5c-.8.7-1.7,1.2-2.8,1.6-1.1.4-2.3.5-3.6.5s-2.5-.2-3.6-.5c-1.1-.4-2-.9-2.8-1.6-.8-.7-1.4-1.5-1.8-2.5-.4-1-.6-2-.6-3.2s.2-2.3.6-3.3c.4-1,1-1.8,1.8-2.5s1.7-1.2,2.8-1.6c1.1-.4,2.3-.5,3.6-.5ZM216.8,59.9c1,0,1.9-.3,2.7-.8s1.3-1.3,1.8-2.4.6-2.2.6-3.6-.2-2.6-.6-3.7c-.4-1-1-1.8-1.8-2.4-.8-.6-1.6-.8-2.7-.8s-1.9.3-2.6.8c-.8.6-1.3,1.4-1.8,2.4-.4,1-.6,2.2-.6,3.7s.2,2.6.6,3.6c.4,1,1,1.8,1.8,2.4s1.6.8,2.6.8Z"/>
    <path class="st0" d="M231.6,47.2h-4.1c-.2-.5-.6-.9-.9-1.1-.4-.2-.7-.3-1-.3h-.2v-.2h7.3v.2h-.2c-.3,0-.5.1-.8.4s-.3.6-.1,1.1ZM234,60.9l-7.3-15.2h4.2l4.5,10.6-1.5,4.6ZM234,60.9v-2.9c0,0,5.3-12.3,5.3-12.3h1.8l-5.8,12.2c0,0-.1.3-.2.5-.1.3-.2.6-.4.9-.1.3-.3.6-.4.9-.1.3-.2.5-.2.7h-.2ZM238.6,47.2c.2-.5.2-.8,0-1.1-.2-.2-.5-.4-.8-.4h-.2v-.2h5v.2h-.2c-.3,0-.7.1-1,.3-.4.2-.7.6-.9,1.1h-1.8Z"/>
    <path class="st0" d="M242.7,58.9c-.2.5-.2.8,0,1s.5.4.8.4h.2v.2h-5v-.2h.2c.3,0,.7-.1,1-.3.4-.2.7-.6.9-1.1h1.8ZM247.4,44.9v3c0,0-5.4,12.6-5.4,12.6h-1.8l5.8-12.6c0,0,.1-.3.2-.5.1-.3.2-.5.4-.9.1-.3.3-.6.4-.9.1-.3.2-.5.2-.7h.2ZM249.6,55.7v1h-6.4v-1h6.4ZM247.4,44.9l7.4,15.5h-4.2l-4.7-11,1.5-4.6ZM250,58.9h4.1c.2.5.6.9.9,1.1.4.2.7.3,1,.3h.2v.2h-7.4v-.2h.2c.3,0,.5-.1.8-.4s.3-.6,0-1Z"/>
    <path class="st0" d="M254.3,45.2c.2,0,.4.1.7.2.3,0,.6.1,1,.1.4,0,.7,0,1,0l-2.6.2v-.6ZM268.8,45.6v1h-14.5v-1h14.5ZM256.9,46.5h0c-.7,0-1.3.3-1.7.7-.4.4-.6,1-.6,1.7v.2h-.3v-2.6h2.5ZM259.8,59v1.6h-1.7v-.2h.2c.4,0,.7-.1,1-.4s.4-.6.4-.9h0ZM263.4,45.7v14.9h-3.6v-14.9h3.6ZM263.3,59h0c0,.4.1.7.4.9.3.3.6.4,1,.4h.3v.2h-1.7v-1.6ZM268.8,45.2v.6l-2.7-.2c.3,0,.7,0,1,0,.4,0,.7,0,1-.1s.5-.1.6-.2ZM268.8,46.5v2.6h-.3v-.2c0-.7-.2-1.3-.6-1.7-.4-.4-1-.6-1.7-.7h0c0,0,2.5,0,2.5,0Z"/>
    <path class="st0" d="M272,47.2h0c0-.4-.1-.7-.4-1s-.6-.4-1-.4h-.3v-.2h1.8v1.6ZM272,59v1.6h-1.8v-.2h.3c.4,0,.7-.1,1-.4.3-.3.4-.6.4-.9h0ZM275.5,45.6v15h-3.6v-15h3.6ZM275.4,47.2v-1.6h1.8v.2h-.3c-.4,0-.7.1-1,.4-.3.2-.4.6-.4,1h0ZM275.4,59h0c0,.4.2.7.4.9.3.3.6.4,1,.4h.3v.2h-1.8v-1.6Z"/>
    <path class="st0" d="M287.6,45.3c1.3,0,2.5.2,3.6.5,1.1.4,2,.9,2.8,1.6s1.4,1.5,1.8,2.5.6,2.1.6,3.3-.2,2.3-.6,3.2-1,1.8-1.8,2.5c-.8.7-1.7,1.2-2.8,1.6-1.1.4-2.3.5-3.6.5s-2.5-.2-3.6-.5c-1.1-.4-2-.9-2.8-1.6-.8-.7-1.4-1.5-1.8-2.5-.4-1-.6-2-.6-3.2s.2-2.3.6-3.3c.4-1,1-1.8,1.8-2.5s1.7-1.2,2.8-1.6c1.1-.4,2.3-.5,3.6-.5ZM287.6,59.9c1,0,1.9-.3,2.7-.8s1.3-1.3,1.8-2.4.6-2.2.6-3.6-.2-2.6-.6-3.7c-.4-1-1-1.8-1.8-2.4-.8-.6-1.6-.8-2.7-.8s-1.9.3-2.6.8c-.8.6-1.3,1.4-1.8,2.4-.4,1-.6,2.2-.6,3.7s.2,2.6.6,3.6c.4,1,1,1.8,1.8,2.4s1.6.8,2.6.8Z"/>
    <path class="st0" d="M299.4,59.1v1.5h-1.8v-.2h.4c.4,0,.7-.1,1-.4.3-.2.4-.5.4-.9h0ZM299.3,45.2l3.4,3.8v11.6h-3.4v-12.5c0-.8,0-1.8-.2-2.8h.2ZM299.3,45.2l14.7,12.9.2,2.8-14.7-12.9-.3-2.8ZM302.8,59.1c0,.4.2.7.4.9.3.2.6.4.9.4h.4v.2h-1.9v-1.5h0ZM310.8,47.1c0-.4-.2-.7-.4-.9-.3-.2-.6-.4-1-.4h-.4v-.2h1.8v1.5h0ZM314.2,45.6v12.4c0,.6,0,1.1,0,1.5s.1.9.2,1.4h-.2l-3.5-4v-11.3h3.4ZM314.1,47.1v-1.5h1.9v.2h-.4c-.4,0-.7.1-1,.4-.3.2-.4.5-.4.9h0Z"/>
  </g>
</svg>